# xmcd CD database file
#
# Track frame offsets:
#	150
#	11609
#	33606
#	66943
#	106173
#	139505
#
# Disc length: 2146 seconds
#
# Revision: 0
# Processed by: cddbd v1.5PL3 Copyright (c) Steve Scherf et al.
# Submitted via: CDex 1.51
#
DISCID=49086006
DTITLE=Siegfried  - Louise (take 2) part I
DYEAR=1900
DGENRE=Jazz
TTITLE0=Générique
TTITLE1=Louise (take 1)
TTITLE2=Pickpockets
TTITLE3=Le père et Remi
TTITLE4=Elodie, feb 97
TTITLE5=Louise (take 2)
EXTD=
EXTT0=
EXTT1=
EXTT2=
EXTT3=
EXTT4=
EXTT5=
PLAYORDER=
